<?xml version="1.0" encoding="utf-8" ?>
<svg xmlns="http://www.w3.org/2000/svg" xmlns:xlink="http://www.w3.org/1999/xlink" width="1024" height="1024">
	<!-- background stays put -->
	<rect width="1024" height="1024" fill="#E4E1DC"/>

	<!-- all the original artwork shifted as a unit -->
	<g transform="translate(-230 -105)
				  scale(1.5 1.5)">
	<path fill="#E4E1DC" d="M0 0L1024 0L1024 1024L0 1024L0 0Z"/>
	<path fill="#D57629" d="M414.119 202.936C418.798 188.314 426.237 172.832 440.479 165.362C445.526 162.715 451.654 161.069 457.235 162.91C463.301 164.911 467.421 170.395 470.091 175.946C477.433 191.204 476.91 210.107 471.181 225.791C469.837 229.472 468.203 233.013 466.489 236.533C474.234 248.75 480.398 261.299 483.458 275.541C485.257 283.915 486.39 292.463 488.646 300.733C498.256 335.96 524.462 367.657 555.782 386.258C533.158 350.954 520.599 310.63 529.925 268.555C537.137 234.952 557.446 205.609 586.355 187.023C617.52 167.438 655.203 161.073 691.071 169.335C721.735 176.232 748.408 195.016 765.234 221.562C779.436 244.35 782.837 271.82 776.721 297.812C774.365 307.909 770.309 317.532 764.727 326.27C751.794 315.898 738.088 308.28 720.907 310.191C712.509 311.125 705.154 315.051 699.919 321.712C693.568 329.794 692.096 339.93 693.363 349.906C696.257 372.693 716.168 399.492 727.501 419.916C756.904 472.901 766.121 538.951 726.982 590.107C703.165 621.238 668.709 638.343 630.36 643.381C629.681 643.47 629 643.555 628.32 643.634C622.081 644.346 615.707 645.194 609.422 644.99C606.039 649.884 602.773 653.343 596.659 654.473C590.758 655.564 584.324 655.092 578.353 655.075L550.961 654.998L441.12 655.034C438.302 655.437 435.934 655.277 433.136 654.93C420.49 655.372 407.729 655.056 395.071 655.069C387.248 655.077 378.4 655.896 370.689 654.6C368.998 654.316 367.637 653.847 366.401 652.602C365.144 651.334 364.62 649.678 364.645 647.916C364.773 639.123 372.546 628.438 378.557 622.557C390.631 610.744 403.331 608.991 419.458 609.137C414.274 601.402 408.473 594.151 403.774 586.084C397.577 575.443 393.423 564.188 389.084 552.72C384.264 539.978 379.419 527.282 376.742 513.878C372.336 514.014 367.927 514.08 363.518 514.076C356.907 513.639 350.304 513.851 343.656 513.285C334.655 511.301 326.726 509.158 318.633 504.566C315.094 501.955 311.983 499.23 309.54 495.506C304.171 487.322 304.584 478.069 306.638 468.949C306.984 468.077 307.346 467.212 307.725 466.354C311.718 457.355 318.557 452.016 327.564 448.524C332.31 446.819 336.844 446.216 341.773 445.367L342.367 445.26C348.616 444.443 354.796 443.499 360.989 442.323C360.102 426.358 355.705 393.838 350.06 379.495C327.204 380.668 309.492 377.293 291.897 361.585C281.455 352.262 275.249 340.143 274.502 326.106C273.015 298.127 288.245 264.112 306.827 243.821C311.944 238.233 317.544 233.183 323.225 228.182C317.863 211.104 314.887 192.044 323.573 175.38C326.334 170.085 330.728 165.129 336.552 163.246C341.877 161.524 347.653 163.242 352.4 165.84C363.211 171.756 369.771 183.657 373.047 195.15C373.897 198.085 374.476 201.092 374.777 204.133C387.797 201.351 400.956 200.535 414.119 202.936Z"/>
	<path fill="#292926" d="M360.989 442.323L361.655 442.204C389.336 437.062 415.622 420.412 435.021 400.335C437.353 397.922 442.091 392.785 445.817 395.609C446.932 396.454 447.761 398.164 447.823 399.569C447.97 402.898 444.89 406.019 442.69 408.185C419.34 431.178 391.503 447.525 358.921 453.073C348.427 454.86 336.751 454.768 327.067 459.53C320.094 462.959 316.434 468.949 314.526 476.258L315.291 476.214C321.766 475.809 334.35 470.854 339.984 474.498C340.675 475.649 340.862 475.956 340.608 477.363C340.173 479.77 337.442 481.731 335.436 482.748C333.309 483.826 317.799 486.532 314.862 486.67C319.841 495.377 325.998 498.813 335.45 501.365C359.492 507.857 401.018 502.517 424.992 495.094C435.444 491.858 446.028 487.106 455.477 481.596C463.743 476.775 471.646 471.359 479.126 465.391C483.294 462.04 487.397 457.67 491.953 454.941C493.311 454.127 494.776 453.708 496.35 454.223C497.892 454.727 499.059 456.057 499.607 457.551C500.172 459.094 500.136 460.703 499.527 462.229C498.459 464.899 493.096 468.537 490.806 470.435C471.425 486.499 449.832 499.4 425.502 506.399C414.293 509.624 402.617 511.354 391.031 512.568C386.368 513.056 381.332 513.078 376.742 513.878C372.336 514.014 367.927 514.08 363.518 514.076C356.907 513.639 350.304 513.851 343.656 513.285C334.655 511.301 326.726 509.158 318.633 504.566C315.094 501.955 311.983 499.23 309.54 495.506C304.171 487.322 304.584 478.069 306.638 468.949C306.984 468.077 307.346 467.212 307.725 466.354C311.718 457.355 318.557 452.016 327.564 448.524C332.31 446.819 336.844 446.216 341.773 445.367L342.367 445.26C348.616 444.443 354.796 443.499 360.989 442.323Z"/>
	<path fill="#292926" d="M481.268 608.416C466.539 585.87 461.146 562.881 466.841 536.262C472.046 511.63 486.835 490.081 507.945 476.364C521.04 467.97 535.169 463.642 550.505 461.647C554.225 461.163 558.488 460.363 562.19 461.292C564.142 461.782 565.656 462.849 566.67 464.606C567.237 465.589 567.575 466.643 567.251 467.781C566.749 469.54 564.996 470.742 563.402 471.422C558.844 473.366 545.588 474.106 539.762 475.306C515.129 480.382 492.997 499.984 483.154 522.827C473.689 544.79 474.307 567.841 483.182 589.815C485.598 595.795 489.983 601.703 494.408 606.358C496.505 608.564 499.315 610.8 500.864 613.422C501.711 614.854 501.961 616.003 501.622 617.661C500.575 619.261 499.348 619.941 497.515 620.312C492.964 621.233 488.249 619.763 483.676 619.722C470.3 619.604 455.241 627.642 447.536 638.487C443.752 643.814 443.577 649.319 441.12 655.034C438.302 655.437 435.934 655.277 433.136 654.93C431.335 652.131 431.128 649.802 431.895 646.544C434.848 634.001 444.578 622.539 455.545 616.121C463.375 611.522 472.199 608.879 481.268 608.416Z"/>
	<path fill="#B8571B" d="M638.008 484.729C638.993 485.67 639.965 486.626 640.923 487.595C658.495 505.468 666.691 538.01 666.33 562.473C665.973 586.646 658.085 609.795 642.729 628.592C638.283 634.034 633.333 638.742 628.32 643.634C622.081 644.346 615.707 645.194 609.422 644.99C609.744 640.376 608.967 635.504 608.561 630.899C611.838 626.647 616.564 623.213 620.385 619.395C631.481 608.488 640.008 595.248 645.348 580.635C657.044 547.789 652.798 515.643 638.008 484.729Z"/>
	<path fill="#292926" d="M298.063 312.177C304.01 311.685 311.358 311.122 317.043 313.245C319.615 314.206 321.661 315.847 322.781 318.393C324.287 321.813 323.778 325.808 322.281 329.142C319.913 334.414 316.189 336.74 311.073 338.77C312.49 343.805 314.039 348.628 318.298 352.046C321.787 354.847 326.298 355.959 330.711 355.426C338.767 354.453 338.521 351.875 343.198 347.019C344.075 346.124 345.313 345.68 346.559 345.813C347.703 345.943 348.478 346.47 349.205 347.349C350.473 348.884 350.568 350.258 350.455 352.179L350.245 352.561C350.127 352.773 350.004 352.982 349.887 353.194C347.056 358.316 342.594 361.525 336.998 363.196C330.07 365.265 322.237 364.77 315.926 361.104C307.548 356.237 305.184 347.958 302.741 339.277C300.129 338.748 297.403 338.193 295.127 336.737C290.96 334.115 288.105 329.845 287.274 324.993C286.729 321.951 286.838 318.666 288.704 316.075C291.083 312.772 294.361 312.653 298.063 312.177Z"/>
	<path fill="#292926" d="M386.217 273.054C389.077 272.814 391.894 272.736 394.605 273.824C398.806 275.509 401.94 278.669 403.704 282.829C405.746 287.644 405.78 293.461 403.76 298.291C401.53 303.62 397.7 306.311 392.514 308.303C389.279 308.603 386.401 308.561 383.381 307.218C379.33 305.415 376.377 301.93 374.855 297.806C372.969 292.696 373.251 286.651 375.681 281.768C377.98 277.15 381.479 274.748 386.217 273.054Z"/>
	<path fill="#8DBE78" d="M363.518 514.076C362.125 514.16 360.976 514.332 359.629 514.694C359.738 519.046 361.232 523.86 362.117 528.145C363.709 535.855 370.378 565.323 368.665 571.345C366.671 572.957 362.594 573.678 360.064 574.11C351.854 575.511 343.397 576.18 335.127 577.212C318.603 579.418 302.048 581.376 285.465 583.085C278.724 583.792 271.104 585.779 264.404 585.505C262.809 585.44 261.36 584.961 260.357 583.631C258.046 580.569 252.047 547.112 250.542 540.5C241.319 499.991 229.616 459.98 221.546 419.189C221.027 416.566 220.05 411.995 220.98 409.471C221.475 408.13 222.38 407.134 223.619 406.451C224.87 405.761 226.297 405.371 227.704 405.178C244.44 402.881 261.52 401.662 278.336 399.877C293.614 398.256 309.1 395.963 324.426 395.067C326.47 394.947 328.254 395.075 330.229 395.597C331.766 396.72 332.416 397.856 333.078 399.637C334.475 403.396 335.053 407.769 335.807 411.707C337.906 422.662 339.357 433.688 341.314 444.651L342.367 445.26L341.773 445.367C336.844 446.216 332.31 446.819 327.564 448.524C318.557 452.016 311.718 457.355 307.725 466.354C307.346 467.212 306.984 468.077 306.638 468.949C304.584 478.069 304.171 487.322 309.54 495.506C311.983 499.23 315.094 501.955 318.633 504.566C326.726 509.158 334.655 511.301 343.656 513.285C350.304 513.851 356.907 513.639 363.518 514.076Z"/>
	<path fill="#589745" d="M363.518 514.076C362.125 514.16 360.976 514.332 359.629 514.694C359.738 519.046 361.232 523.86 362.117 528.145C363.709 535.855 370.378 565.323 368.665 571.345C366.671 572.957 362.594 573.678 360.064 574.11C351.854 575.511 343.397 576.18 335.127 577.212C318.603 579.418 302.048 581.376 285.465 583.085C278.724 583.792 271.104 585.779 264.404 585.505C262.809 585.44 261.36 584.961 260.357 583.631C258.046 580.569 252.047 547.112 250.542 540.5C241.319 499.991 229.616 459.98 221.546 419.189C221.027 416.566 220.05 411.995 220.98 409.471C221.475 408.13 222.38 407.134 223.619 406.451C224.87 405.761 226.297 405.371 227.704 405.178C244.44 402.881 261.52 401.662 278.336 399.877C293.614 398.256 309.1 395.963 324.426 395.067C326.47 394.947 328.254 395.075 330.229 395.597C331.766 396.72 332.416 397.856 333.078 399.637C334.475 403.396 335.053 407.769 335.807 411.707C337.906 422.662 339.357 433.688 341.314 444.651L342.367 445.26L341.773 445.367C336.844 446.216 332.31 446.819 327.564 448.524C325.761 443.028 324.559 437.268 323.165 431.653C317.151 430.863 311.674 430.018 307.802 424.753C305.728 421.933 304.647 418.575 304.098 415.155L252.817 420.299C253.971 425.609 254.572 430.297 251.51 435.153C249.405 438.491 246.337 440.878 243.981 443.972C246.262 457.428 249.926 470.833 253.029 484.125L268.344 549.892C274.103 550.301 279.745 551.482 283.795 555.967C286.868 559.369 287.808 563.194 288.657 567.538C304.944 565.456 321.256 563.583 337.591 561.918C337.199 555.153 337.797 549.849 342.482 544.501C344.665 542.009 346.918 540.462 349.85 538.999C347.494 530.514 345.571 521.88 343.656 513.285C350.304 513.851 356.907 513.639 363.518 514.076Z"/>
	<path fill="#589745" d="M318.633 504.566C318.515 504.792 318.393 505.016 318.278 505.244C315.894 510.004 311.474 513.416 306.559 515.349C300.182 517.858 292.658 517.897 286.372 515.111C279.514 512.071 274.562 506.223 272.067 499.222C269.616 492.344 269.637 484.593 272.905 477.978C275.53 472.569 280.207 468.432 285.896 466.486C293.133 464.053 300.042 465.608 306.638 468.949C304.584 478.069 304.171 487.322 309.54 495.506C311.983 499.23 315.094 501.955 318.633 504.566Z"/>
	</g>
</svg>
